<?xml version="1.0" ?><!DOCTYPE svg  PUBLIC '-//W3C//DTD SVG 1.1//EN'  'http://www.w3.org/Graphics/SVG/1.1/DTD/svg11.dtd'><svg height="2048px" style="shape-rendering:geometricPrecision; text-rendering:geometricPrecision; image-rendering:optimizeQuality; fill-rule:evenodd; clip-rule:evenodd" viewBox="0 0 2048 2048" width="2048px" xml:space="preserve" xmlns="http://www.w3.org/2000/svg" xmlns:xlink="http://www.w3.org/1999/xlink"><defs><style type="text/css">
   <![CDATA[
    .fil7 {fill:none}
    .fil2 {fill:#7BA1D0}
    .fil3 {fill:#A580B9}
    .fil6 {fill:#A8BA7F}
    .fil1 {fill:#CE6D68}
    .fil4 {fill:#F29D6B}
    .fil5 {fill:#FBD071}
    .fil0 {fill:#333333;fill-rule:nonzero}
   ]]>
  </style></defs><g id="Layer_x0020_1"><path class="fil0" d="M1641.91 625.76c37.0252,0 70.5497,15.0106 94.8142,39.2752 24.2646,24.2646 39.2752,57.789 39.2752,94.8142 0,37.0252 -15.0106,70.5497 -39.2752,94.8142 -24.2646,24.2646 -57.789,39.2752 -94.8142,39.2752 -37.0252,0 -70.5497,-15.0106 -94.8131,-39.2752 -24.2646,-24.2646 -39.2752,-57.789 -39.2752,-94.8142 0,-37.0252 15.0106,-70.5497 39.2752,-94.8142 24.2634,-24.2646 57.7878,-39.2752 94.8131,-39.2752zm72.189 61.9004c-18.4725,-18.4725 -43.9961,-29.8996 -72.189,-29.8996 -28.1918,0 -53.7166,11.4272 -72.1879,29.8996 -18.4725,18.4725 -29.8996,43.9961 -29.8996,72.189 0,28.1929 11.4272,53.7166 29.8996,72.189 18.4713,18.4725 43.9961,29.8996 72.1879,29.8996 28.1929,0 53.7166,-11.4272 72.189,-29.8996 18.4725,-18.4725 29.8996,-43.9973 29.8996,-72.189 0,-28.1929 -11.4272,-53.7166 -29.8996,-72.189z"/><path class="fil0" d="M349.197 1199.65c21.3142,0 40.6146,8.64331 54.5859,22.6122 13.9689,13.9713 22.6122,33.2717 22.6122,54.5859 0,21.3154 -8.64095,40.6158 -22.6122,54.587 -13.9689,13.9689 -33.2705,22.6122 -54.5859,22.6122 -21.3154,0 -40.617,-8.64331 -54.5859,-22.6122 -13.9713,-13.9713 -22.6122,-33.2717 -22.6122,-54.587 0,-21.3154 8.64095,-40.6146 22.6122,-54.5859 13.9689,-13.9689 33.2705,-22.6122 54.5859,-22.6122zm31.9607 45.2374c-8.17796,-8.17678 -19.4788,-13.2366 -31.9607,-13.2366 -12.4819,0 -23.7839,5.05985 -31.9607,13.2366 -8.17678,8.17678 -13.2366,19.4788 -13.2366,31.9607 0,12.4819 5.05985,23.7851 13.2366,31.9618 8.17678,8.17678 19.4788,13.2366 31.9607,13.2366 12.4819,0 23.7839,-5.05985 31.9607,-13.2366 8.17678,-8.17678 13.2366,-19.4799 13.2366,-31.9618 0,-12.4819 -5.05985,-23.7827 -13.2366,-31.9607z"/><path class="fil0" d="M999.862 1323.93c32.9681,0 62.8182,13.3642 84.4253,34.9713 21.6059,21.6059 34.9725,51.4571 34.9725,84.4253 0,32.9681 -13.3654,62.8193 -34.9725,84.4253 -21.6059,21.6071 -51.4571,34.9725 -84.4253,34.9725 -32.9681,0 -62.8193,-13.3665 -84.4253,-34.9725 -21.6071,-21.6071 -34.9713,-51.4571 -34.9713,-84.4253 0,-32.9681 13.3642,-62.817 34.9713,-84.4241 21.6059,-21.6059 51.4571,-34.9725 84.4253,-34.9725zm61.8 57.5965c-15.8138,-15.8138 -37.6654,-25.5957 -61.8,-25.5957 -24.1347,0 -45.9863,9.78308 -61.8,25.5969 -15.8138,15.8138 -25.5957,37.6642 -25.5957,61.7989 0,24.1347 9.7819,45.9863 25.5957,61.8 15.8138,15.8138 37.6654,25.5969 61.8,25.5969 24.1358,0 45.9863,-9.7819 61.8,-25.5969 15.815,-15.8138 25.5969,-37.6642 25.5969,-61.8 0,-24.1347 -9.78308,-45.9863 -25.5969,-61.8z"/><path class="fil0" d="M959.544 485.275c23.5146,0 44.8075,9.53387 60.2186,24.9449 15.411,15.411 24.9449,36.7028 24.9449,60.2186 0,23.5146 -9.53387,44.8075 -24.9449,60.2186 -15.411,15.411 -36.704,24.9449 -60.2186,24.9449 -23.5146,0 -44.8075,-9.53387 -60.2186,-24.9449 -15.411,-15.411 -24.9449,-36.704 -24.9449,-60.2186 0,-23.5146 9.53387,-44.8075 24.9449,-60.2186 15.411,-15.411 36.704,-24.9449 60.2186,-24.9449zm37.5933 47.5701c-9.61891,-9.61891 -22.9122,-15.5693 -37.5933,-15.5693 -14.6811,0 -27.9744,5.9504 -37.5933,15.5693 -9.61891,9.61891 -15.5693,22.9122 -15.5693,37.5933 0,14.6811 5.9504,27.9744 15.5693,37.5933 9.61891,9.61891 22.9122,15.5693 37.5933,15.5693 14.6811,0 27.9744,-5.9504 37.5933,-15.5693 9.61891,-9.61891 15.5693,-22.9122 15.5693,-37.5933 0,-14.6823 -5.9504,-27.9744 -15.5693,-37.5933z"/><path class="fil0" d="M1517.96 1133.02c23.5158,0 44.8075,9.53387 60.2186,24.9449 15.411,15.411 24.9449,36.704 24.9449,60.2186 0,23.5158 -9.53387,44.8075 -24.9449,60.2186 -15.411,15.411 -36.7028,24.9449 -60.2186,24.9449 -23.5146,0 -44.8075,-9.53387 -60.2186,-24.9449 -15.411,-15.411 -24.9449,-36.7028 -24.9449,-60.2186 0,-23.5146 9.53387,-44.8075 24.9449,-60.2186 15.411,-15.411 36.704,-24.9449 60.2186,-24.9449zm37.5933 47.5701c-9.61891,-9.61891 -22.911,-15.5693 -37.5933,-15.5693 -14.6811,0 -27.9744,5.9504 -37.5933,15.5693 -9.61891,9.61891 -15.5693,22.9122 -15.5693,37.5933 0,14.6823 5.9504,27.9744 15.5693,37.5933 9.61891,9.61891 22.9122,15.5693 37.5933,15.5693 14.6823,0 27.9744,-5.9504 37.5933,-15.5693 9.61891,-9.61891 15.5693,-22.911 15.5693,-37.5933 0,-14.6811 -5.9504,-27.9744 -15.5693,-37.5933z"/><path class="fil0" d="M804.538 998.38c22.3949,0 42.6733,9.08032 57.3497,23.7567 14.6764,14.6764 23.7567,34.9548 23.7567,57.3497 0,22.3949 -9.08032,42.6721 -23.7567,57.3485 -14.6764,14.6764 -34.9548,23.7567 -57.3497,23.7567 -22.3949,0 -42.6733,-9.08032 -57.3497,-23.7567 -14.6764,-14.6764 -23.7567,-34.9536 -23.7567,-57.3485 0,-22.3949 9.08032,-42.6733 23.7567,-57.3497 14.6764,-14.6764 34.9548,-23.7567 57.3497,-23.7567zm34.7244 46.3819c-8.88426,-8.88426 -21.163,-14.3811 -34.7244,-14.3811 -13.5614,0 -25.8402,5.49685 -34.7244,14.3811 -8.88426,8.88426 -14.3811,21.163 -14.3811,34.7244 0,13.5614 5.49685,25.839 14.3811,34.7233 8.88426,8.88426 21.163,14.3811 34.7244,14.3811 13.5614,0 25.8402,-5.49685 34.7244,-14.3811 8.88426,-8.88426 14.3811,-21.1618 14.3811,-34.7233 0,-13.5614 -5.49685,-25.8402 -14.3811,-34.7244z"/><polygon class="fil0" points="927.165,640.212 380.075,1229.6 356.701,1207.85 903.791,618.463 "/><polygon class="fil0" points="409.62,1284.49 903.094,1403.5 895.594,1434.5 402.12,1315.49 "/><polygon class="fil0" points="1625.5,874.594 1560.9,1158.15 1529.78,1151.15 1594.37,867.595 "/><polygon class="fil0" points="1094.48,1404.91 1464.14,1253.46 1476.27,1282.96 1106.6,1434.41 "/><polygon class="fil0" points="942.62,1357.22 822.514,1144.06 850.388,1128.43 970.494,1341.6 "/><polygon class="fil0" points="859.023,1039.49 1526.02,787.26 1537.27,817.134 870.272,1069.37 "/><polygon class="fil0" points="1031.33,570.321 1532.59,712.238 1523.96,742.987 1022.71,601.069 "/><polygon class="fil0" points="1013.53,615.232 1476.96,1163.65 1452.59,1184.28 989.159,635.856 "/><polygon class="fil0" points="1565.35,849.457 1070.09,1369.17 1046.96,1347.17 1542.22,827.457 "/><polygon class="fil0" points="991.498,639.599 991.498,1343.06 959.498,1343.06 959.498,639.599 "/><polygon class="fil0" points="931.04,632.963 838.64,1023.22 807.516,1015.97 899.916,625.713 "/><polygon class="fil0" points="386.47,1218.27 739.977,1084.59 751.225,1114.46 397.719,1248.14 "/><path class="fil1" d="M394.394 1276.85c0,-12.4819 -5.05985,-23.7827 -13.2366,-31.9607 -8.17796,-8.17678 -19.4788,-13.2366 -31.9607,-13.2366 -12.4819,0 -23.7839,5.05985 -31.9607,13.2366 -8.17678,8.17678 -13.2366,19.4788 -13.2366,31.9607 0,12.4819 5.05985,23.7851 13.2366,31.9618 8.17678,8.17678 19.4788,13.2366 31.9607,13.2366 12.4819,0 23.7839,-5.05985 31.9607,-13.2366 8.17678,-8.17678 13.2366,-19.4799 13.2366,-31.9618z"/><path class="fil2" d="M912.466 1443.33c0,24.1347 9.7819,45.9863 25.5957,61.8 15.8138,15.8138 37.6654,25.5969 61.8,25.5969 24.1358,0 45.9863,-9.7819 61.8,-25.5969 15.815,-15.8138 25.5969,-37.6642 25.5969,-61.8 0,-24.1347 -9.78308,-45.9863 -25.5969,-61.8 -15.8138,-15.8138 -37.6654,-25.5957 -61.8,-25.5957 -24.1347,0 -45.9863,9.78308 -61.8,25.5969 -15.8138,15.8138 -25.5957,37.6642 -25.5957,61.7989z"/><path class="fil3" d="M804.538 1128.59c13.5614,0 25.8402,-5.49685 34.7244,-14.3811 8.88426,-8.88426 14.3811,-21.1618 14.3811,-34.7233 0,-13.5614 -5.49685,-25.8402 -14.3811,-34.7244 -8.88426,-8.88426 -21.163,-14.3811 -34.7244,-14.3811 -13.5614,0 -25.8402,5.49685 -34.7244,14.3811 -8.88426,8.88426 -14.3811,21.163 -14.3811,34.7244 0,13.5614 5.49685,25.839 14.3811,34.7233 8.88426,8.88426 21.163,14.3811 34.7244,14.3811z"/><path class="fil4" d="M921.95 608.032c9.61891,9.61891 22.9122,15.5693 37.5933,15.5693 14.6811,0 27.9744,-5.9504 37.5933,-15.5693 9.61891,-9.61891 15.5693,-22.9122 15.5693,-37.5933 0,-14.6823 -5.9504,-27.9744 -15.5693,-37.5933 -9.61891,-9.61891 -22.9122,-15.5693 -37.5933,-15.5693 -14.6811,0 -27.9744,5.9504 -37.5933,15.5693 -9.61891,9.61891 -15.5693,22.9122 -15.5693,37.5933 0,14.6811 5.9504,27.9744 15.5693,37.5933z"/><path class="fil5" d="M1569.72 687.661c-18.4725,18.4725 -29.8996,43.9961 -29.8996,72.189 0,28.1929 11.4272,53.7166 29.8996,72.189 18.4713,18.4725 43.9961,29.8996 72.1879,29.8996 28.1929,0 53.7166,-11.4272 72.189,-29.8996 18.4725,-18.4725 29.8996,-43.9973 29.8996,-72.189 0,-28.1929 -11.4272,-53.7166 -29.8996,-72.189 -18.4725,-18.4725 -43.9961,-29.8996 -72.189,-29.8996 -28.1918,0 -53.7166,11.4272 -72.1879,29.8996z"/><path class="fil6" d="M1555.55 1180.59c-9.61891,-9.61891 -22.911,-15.5693 -37.5933,-15.5693 -14.6811,0 -27.9744,5.9504 -37.5933,15.5693 -9.61891,9.61891 -15.5693,22.9122 -15.5693,37.5933 0,14.6823 5.9504,27.9744 15.5693,37.5933 9.61891,9.61891 22.9122,15.5693 37.5933,15.5693 14.6823,0 27.9744,-5.9504 37.5933,-15.5693 9.61891,-9.61891 15.5693,-22.911 15.5693,-37.5933 0,-14.6811 -5.9504,-27.9744 -15.5693,-37.5933z"/></g><rect class="fil7" height="2048" width="2048"/></svg>